<?xml version="1.0" encoding="utf-8"?><svg width="24" height="24" fill="none" xmlns="http://www.w3.org/2000/svg" viewBox="0 0 24 24"><path fill-rule="evenodd" clip-rule="evenodd" d="M12 24c6.627 0 12-5.373 12-12S18.627 0 12 0 0 5.373 0 12s5.373 12 12 12zm.838-18.344V3.789H11.49v1.84a4.525 4.525 0 00-1.529.406 3.323 3.323 0 00-1.407 1.208c-.34.524-.51 1.143-.51 1.857 0 .748.159 1.367.475 1.856.317.484.757.89 1.321 1.218.57.322 1.23.627 1.978.915.443.167.794.34 1.053.518.265.179.455.383.57.613.12.23.181.51.181.838 0 .294-.063.558-.19.794-.12.23-.302.412-.544.544-.236.133-.538.199-.906.199-.236 0-.47-.035-.7-.104a1.658 1.658 0 01-.621-.345 1.8 1.8 0 01-.432-.665c-.11-.282-.164-.633-.164-1.053H7.579c0 .771.127 1.421.38 1.951.253.524.593.944 1.019 1.26.426.317.9.548 1.425.692.306.08.614.138.923.171v1.711h1.348v-1.71a4.938 4.938 0 001.467-.371c.622-.276 1.106-.674 1.451-1.192.345-.524.518-1.157.518-1.9 0-.748-.158-1.364-.475-1.847-.316-.484-.757-.892-1.32-1.226a13.124 13.124 0 00-1.97-.933c-.46-.19-.823-.374-1.088-.553-.264-.184-.451-.385-.56-.604a1.778 1.778 0 01-.156-.768c0-.3.049-.565.146-.795.104-.236.268-.423.493-.561.224-.138.512-.207.863-.207.236 0 .452.046.648.138.195.086.362.219.5.397.144.178.254.4.329.665.075.265.112.57.112.915h2.478c0-.645-.095-1.217-.285-1.718a3.43 3.43 0 00-.82-1.27 3.478 3.478 0 00-1.278-.794 4.304 4.304 0 00-.89-.223z" fill="currentColor"/></svg>