<?xml version="1.0" encoding="utf-8"?><svg width="243" height="197" fill="none" xmlns="http://www.w3.org/2000/svg" viewBox="0 0 243 197"><g opacity=".6" clip-path="url(#amclip0_232_7529)"><path d="M193.827 3.247H25.277v164.629h168.55V3.247z" fill="#231F20"/><path d="M189.494 8.511H29.61v159.365h159.884V8.511z" fill="#fff"/><path d="M193.827 165.555v2.321h-84.942l18.353-18.3 25.277-25.23 41.312 41.209z" fill="#231F20"/><path d="M25.277 167.876v-15.824l52.218-52.096 68.088 67.92H25.277zM137.347 81.828c14.254 0 25.808-11.526 25.808-25.745 0-14.218-11.554-25.744-25.808-25.744-14.253 0-25.808 11.526-25.808 25.744 0 14.219 11.555 25.745 25.808 25.745z" fill="#231F20"/><path d="M224.286 11.777l-.076.776 5.579.543.076-.775-5.579-.543zM205.302 9.934l-.076.775 13.651 1.33.076-.774-13.651-1.33zM75.256.008L59.209 163.857l167.75 16.348 16.048-163.848L75.256.008z" fill="#5D5E61"/><path d="M79.056 5.66L63.522 164.27l159.127 15.508 15.534-158.61L79.056 5.662z" fill="#fff"/><path d="M227.184 177.882l-.227 2.305-84.536-8.231 20.047-16.438 27.619-22.653 37.097 45.017z" fill="#5D5E61"/><path d="M59.204 163.85l1.546-15.746 57.05-46.785 61.148 74.196L59.204 163.85zM205.284 73.793c5.722-13.022-.221-28.206-13.276-33.914-13.054-5.708-28.276.221-33.998 13.243-5.722 13.022.222 28.206 13.276 33.915 13.054 5.708 28.276-.221 33.998-13.244z" fill="#5D5E61"/><path d="M168.193 21.756L.003 32.723 10.767 197l168.19-10.967-10.765-164.278z" fill="#D2D1D4"/><path d="M164.213 27.287L4.669 37.691l10.42 159.025 159.545-10.404-10.421-159.025z" fill="#fff"/><path d="M178.792 183.723l.156 2.32-84.763 5.522 17.12-19.453 23.575-26.819 43.912 38.43z" fill="#D2D1D4"/><path d="M10.758 197l-1.039-15.785 48.713-55.382 72.373 63.349L10.757 197zM133.539 96.367c10.079-10.054 10.079-26.354 0-36.408-10.079-10.054-26.42-10.054-36.498 0-10.08 10.054-10.08 26.354 0 36.408 10.078 10.054 26.419 10.054 36.498 0z" fill="#D2D1D4"/></g><defs><clipPath id="amclip0_232_7529"><path fill="#fff" d="M0 0h243v197H0z"/></clipPath></defs></svg>