<?xml version="1.0" encoding="utf-8"?><svg width="24" height="24" fill="none" xmlns="http://www.w3.org/2000/svg" viewBox="0 0 24 24"><circle cx="12" cy="12" r="12" fill="currentColor"/><path d="M12.954 14.154H10.69c.006-.533.048-.991.125-1.376a3.26 3.26 0 01.417-1.057c.201-.313.468-.624.8-.932.277-.248.52-.485.727-.71.207-.225.37-.456.489-.693.118-.242.177-.512.177-.808 0-.343-.053-.627-.16-.852-.1-.231-.254-.406-.461-.524-.202-.118-.456-.178-.764-.178-.255 0-.491.057-.71.17a1.32 1.32 0 00-.542.496c-.136.225-.207.521-.213.888H8c.018-.81.204-1.48.56-2.006a3.221 3.221 0 011.447-1.181C10.61 5.13 11.288 5 12.04 5c.829 0 1.539.136 2.13.408.593.267 1.046.66 1.36 1.181.313.515.47 1.143.47 1.883 0 .515-.1.973-.302 1.376a4.706 4.706 0 01-.79 1.11c-.326.343-.684.698-1.074 1.065-.338.302-.569.619-.693.95-.118.332-.18.725-.187 1.181zm-2.53 2.744c0-.379.13-.693.39-.941.261-.255.61-.382 1.048-.382.432 0 .779.127 1.04.382.266.248.399.562.399.941 0 .367-.133.678-.4.932-.26.255-.607.382-1.039.382-.438 0-.787-.127-1.047-.382a1.254 1.254 0 01-.391-.932z" fill="#fff"/></svg>