<?xml version="1.0" encoding="utf-8"?><svg width="28" height="27" fill="none" xmlns="http://www.w3.org/2000/svg" viewBox="0 0 28 27"><g clip-path="url(#awclip0_259_8617)" fill="currentColor"><path d="M14.031.393C21.294.39 27.194 6.28 27.202 13.542c.008 7.271-5.897 13.181-13.168 13.178C6.772 26.716.876 20.818.876 13.557.876 6.293 6.768.397 14.031.393zm7.605 13.16c-.047-1.252-.047-2.513-.153-3.766-.163-1.924-1.49-3.35-3.389-3.624-.953-.137-1.929-.153-2.893-.153-1.644 0-3.293-.01-4.93.11-1.5.11-2.645.88-3.304 2.276-.29.611-.42 1.27-.43 1.941a366.47 366.47 0 00-.044 5.32c0 .557.04 1.114.095 1.668.19 1.914 1.504 3.356 3.394 3.624.954.135 1.93.153 2.894.153 1.635 0 3.275.009 4.905-.105 2.043-.142 3.533-1.651 3.704-3.688.104-1.245.105-2.498.152-3.755h-.001z"/><path d="M14.06 7.335c1.145.033 2.284.038 3.421.106 1.58.095 2.622 1.095 2.664 2.68.061 2.285.062 4.573 0 6.858-.043 1.599-1.084 2.602-2.68 2.693a59.51 59.51 0 01-6.883-.002c-1.561-.09-2.608-1.1-2.65-2.668-.06-2.293-.061-4.59 0-6.883.043-1.583 1.087-2.583 2.667-2.678 1.153-.069 2.311-.073 3.461-.106zm3.856 6.223a3.87 3.87 0 00-3.862-3.88 3.872 3.872 0 00-3.893 3.875 3.873 3.873 0 003.863 3.88 3.872 3.872 0 003.892-3.876v.001zm.17-4.939a.895.895 0 00-.914.877.894.894 0 00.89.927.898.898 0 00.915-.903.9.9 0 00-.892-.902v.001z"/><path d="M16.558 13.566a2.523 2.523 0 01-2.522 2.51 2.523 2.523 0 01-2.516-2.541 2.524 2.524 0 012.535-2.497 2.522 2.522 0 012.502 2.528h.002z"/></g><defs><clipPath id="awclip0_259_8617"><path fill="#fff" transform="translate(.876 .393)" d="M0 0h26.326v26.326H0z"/></clipPath></defs></svg>