<?xml version="1.0" encoding="utf-8"?><svg width="16" height="16" fill="none" xmlns="http://www.w3.org/2000/svg" viewBox="0 0 16 16"><path d="M5.812 5.867C7.386 4.53 8.948 3.2 10.517 1.865c-.14-.29-.207-.587-.159-.907.052-.339.203-.622.45-.854a.41.41 0 01.522-.018c.05.037.094.082.14.127l4.314 4.275c.295.292.289.526-.03.781-.463.37-.974.432-1.521.21-.075-.03-.122-.045-.187.03-1.311 1.52-2.626 3.036-3.94 4.554-.007.007-.01.018-.023.04.22.262.385.559.449.904.126.685-.058 1.278-.548 1.775-.19.194-.442.178-.653-.03l-2.375-2.354c-.04-.04-.083-.077-.158-.149-.04.057-.07.116-.113.159-1.27 1.23-2.526 2.475-3.82 3.68-.68.634-1.428 1.197-2.15 1.787-.202.166-.432.164-.586.015-.17-.165-.175-.39-.005-.604.987-1.232 2.012-2.432 3.131-3.55.792-.792 1.59-1.578 2.386-2.365.04-.04.087-.075.144-.124-.052-.055-.088-.096-.127-.135L3.16 6.637c-.272-.27-.266-.496.02-.754a1.974 1.974 0 012.508-.109c.038.028.075.058.123.095v-.002z" fill="#919191"/></svg>