<?xml version="1.0" encoding="utf-8"?><svg width="24" height="24" fill="none" xmlns="http://www.w3.org/2000/svg" viewBox="0 0 24 24"><path fill-rule="evenodd" clip-rule="evenodd" d="M6.453 4.45A10.5 10.5 0 019.5 4C15.3 4 20 8.701 20 14.5c0 1.06-.157 2.083-.449 3.047A9.5 9.5 0 106.453 4.45z" fill="#919191"/><path fill-rule="evenodd" clip-rule="evenodd" d="M9.5 24a9.5 9.5 0 100-19 9.5 9.5 0 000 19zm.663-14.523V8H9.097v1.457c-.447.042-.85.15-1.21.32a2.631 2.631 0 00-1.115.957c-.268.415-.403.905-.403 1.47 0 .592.125 1.082.376 1.47.25.383.6.704 1.046.964.451.255.973.496 1.565.724.351.133.63.27.834.41.21.142.36.304.452.486.095.182.143.403.143.663 0 .232-.05.442-.15.629-.096.182-.24.326-.43.43-.188.105-.427.158-.719.158-.187 0-.371-.028-.553-.082a1.313 1.313 0 01-.493-.274 1.425 1.425 0 01-.341-.526c-.087-.223-.13-.501-.13-.834H6c0 .61.1 1.125.3 1.545.201.415.47.747.807.998.338.25.714.433 1.128.547.243.064.487.11.732.136v1.354h1.066v-1.354a3.908 3.908 0 001.162-.293 2.62 2.62 0 001.149-.944c.273-.415.41-.916.41-1.504 0-.592-.125-1.08-.376-1.463-.25-.383-.6-.706-1.046-.97a10.38 10.38 0 00-1.559-.739 4.97 4.97 0 01-.86-.437 1.32 1.32 0 01-.445-.479 1.407 1.407 0 01-.123-.608c0-.237.038-.447.116-.629a.97.97 0 01.39-.444c.177-.11.405-.164.683-.164.187 0 .358.036.513.109.155.068.287.173.396.315.114.14.2.316.26.526.06.21.089.451.089.724h1.962c0-.51-.075-.963-.226-1.36a2.715 2.715 0 00-.65-1.005 2.753 2.753 0 00-1.01-.629 3.406 3.406 0 00-.705-.177z" fill="#919191"/></svg>