<?xml version="1.0" encoding="utf-8"?><svg width="311" height="254" fill="none" xmlns="http://www.w3.org/2000/svg" viewBox="0 0 311 254"><path d="M303.973 29.388a117.512 117.512 0 01-14.993 5.463 66.276 66.276 0 0013.494-23.73 5 5 0 00-7.313-5.824 117.994 117.994 0 01-34.878 13.783C247.902 6.982 231.086.097 213.702.097c-36.695 0-66.549 29.853-66.549 66.547 0 2.89.183 5.764.545 8.598C102.163 71.244 59.83 48.863 30.76 13.204a5.001 5.001 0 00-8.196.642c-5.896 10.117-9.013 21.688-9.013 33.461 0 16.035 5.725 31.249 15.838 43.137a56.37 56.37 0 01-8.907-3.977 5 5 0 00-7.427 4.257c-.007.295-.007.59-.007.889 0 23.935 12.882 45.484 32.577 57.229a57.372 57.372 0 01-5.063-.735 4.998 4.998 0 00-5.7 6.437c7.29 22.76 26.06 39.501 48.75 44.605-18.82 11.787-40.34 17.961-62.932 17.961a120.4 120.4 0 01-14.095-.826 5 5 0 00-3.286 9.174c29.023 18.609 62.582 28.445 97.047 28.445 67.754 0 110.139-31.95 133.764-58.753 29.46-33.421 46.356-77.658 46.356-121.367 0-1.826-.028-3.67-.084-5.508 11.623-8.757 21.63-19.355 29.773-31.536a5 5 0 00-6.182-7.351z" fill="currentColor"/></svg>