<?xml version="1.0" encoding="utf-8"?><svg width="2000" height="1347.37" fill="none" xmlns="http://www.w3.org/2000/svg" viewBox="0 0 2280 1536"><path d="M2240.98 1535.2H.295V.8H2279.71v1534.4h-38.73z" fill="#1D5B99"/><path fill-rule="evenodd" clip-rule="evenodd" d="M2240.98 1496.47H39.023V39.527H2240.98V1496.47z" fill="#fff"/><path fill-rule="evenodd" clip-rule="evenodd" d="M834.86 1004.61l143.005-471.518h127.595L962.444 1004.61H834.86zm-57.04-471.389l-114.783 199.89c-29.208 52.359-46.302 78.805-54.512 111.865h-1.751c2.036-41.919-3.813-93.422-4.358-122.526l-12.684-189.229H374.953l-2.192 12.685c55.173 0 87.896 27.716 96.897 84.42l41.866 374.284h132.188l267.294-471.389H777.82zm992.26 471.389l-3.51-70.117-159.31-.13-32.6 70.247h-138.52l251.18-470.623h170.02l42.53 470.623h-129.79zm-14.61-278.139c-1.44-34.85-2.61-82.138-.26-110.775h-1.88c-7.76 23.411-41.12 93.707-55.79 128.271l-47.47 103.343h111.87l-6.47-120.839zm-516.06 291.539c-90.07 0-149.86-28.577-192.53-54.063l60.77-92.811c38.33 21.426 68.41 46.159 137.64 46.159 22.24 0 43.69-5.772 55.89-26.873 17.73-30.648-4.1-47.171-53.93-75.381l-24.62-16.004c-73.89-50.479-105.86-98.441-71.07-182.148 22.27-53.539 80.95-94.134 177.82-94.134 66.77 0 129.4 28.896 165.87 57.119l-69.86 81.943c-35.62-28.793-65.12-43.358-98.9-43.358-26.92 0-47.39 10.388-54.46 24.396-13.29 26.328 4.31 44.279 43.14 68.376l29.26 18.625c89.72 56.587 111.07 115.911 88.61 171.356-38.7 95.497-114.42 116.798-193.63 116.798zm698.45-421.016h-5.52V563.35h12.76c8.13 0 12.25 2.84 12.25 9.676 0 6.095-3.72 8.624-8.76 9.182l9.43 14.786h-6.26l-8.69-14.371h-5.21v14.371zm6.17-19.105c4.16 0 7.81-.402 7.81-5.278 0-4.06-3.98-4.553-7.29-4.553h-6.69v9.831h6.17zm-.15 32.113c-17.48 0-29.92-13.086-29.92-30.401 0-18.274 13.8-30.388 29.92-30.388 15.91 0 29.74 12.114 29.74 30.388 0 18.288-13.83 30.401-29.74 30.401zm0-55.51c-13.18 0-23.41 10.324-23.41 25.109 0 13.813 8.93 25.11 23.41 25.11 12.99 0 23.23-10.246 23.23-25.11 0-14.785-10.24-25.109-23.23-25.109z" fill="#1D5B99"/><path fill-rule="evenodd" clip-rule="evenodd" d="M2186.76 1151.05H97.114v279.59H2186.76v-279.59z" fill="#E7A83A"/><path fill-rule="evenodd" clip-rule="evenodd" d="M2182.89 109.24H93.249v279.602H2182.89V109.24zm-47.76 1301.52h-5.52v-33.65h12.76c8.13 0 12.25 2.84 12.25 9.68 0 6.08-3.72 8.61-8.76 9.17l9.43 14.8h-6.26l-8.69-14.39h-5.21v14.39zm6.19-19.11c4.15 0 7.81-.4 7.81-5.29 0-4.05-3.99-4.54-7.29-4.54h-6.7v9.83h6.18zm-.16 32.1c-17.48 0-29.92-13.07-29.92-30.4 0-18.26 13.83-30.37 29.92-30.37 15.94 0 29.74 12.11 29.74 30.37 0 18.29-13.8 30.4-29.74 30.4zm0-55.51c-13.18 0-23.41 10.34-23.41 25.11 0 13.83 8.94 25.11 23.41 25.11 13 0 23.23-10.23 23.23-25.11 0-14.77-10.23-25.11-23.23-25.11z" fill="#1D5B99"/></svg>