<svg width="24" height="24" viewBox="0 0 24 24" fill="none" xmlns="http://www.w3.org/2000/svg">
<path fill-rule="evenodd" clip-rule="evenodd" d="M12 24C18.6274 24 24 18.6274 24 12C24 5.37258 18.6274 0 12 0C5.37258 0 0 5.37258 0 12C0 18.6274 5.37258 24 12 24ZM12.8376 5.65578V3.78947H11.4905V5.62947C10.9258 5.68323 10.4164 5.81825 9.96217 6.03454C9.36349 6.31661 8.89433 6.71957 8.55469 7.24342C8.21505 7.76727 8.04523 8.3861 8.04523 9.09992C8.04523 9.84827 8.20354 10.4671 8.52015 10.9564C8.83676 11.44 9.27714 11.8458 9.84128 12.1739C10.4112 12.4963 11.0703 12.8014 11.8187 13.0892C12.2619 13.2562 12.6131 13.4289 12.8721 13.6073C13.1369 13.7858 13.3269 13.9901 13.442 14.2204C13.5629 14.4507 13.6234 14.7299 13.6234 15.058C13.6234 15.3516 13.56 15.6164 13.4334 15.8524C13.3125 16.0826 13.1312 16.264 12.8894 16.3964C12.6534 16.5288 12.3512 16.595 11.9827 16.595C11.7467 16.595 11.5136 16.5604 11.2833 16.4914C11.053 16.4223 10.8458 16.3072 10.6616 16.146C10.4831 15.979 10.3392 15.7574 10.2299 15.4811C10.1205 15.199 10.0658 14.8479 10.0658 14.4276H7.57895C7.57895 15.199 7.70559 15.8495 7.95888 16.3791C8.21217 16.903 8.55181 17.3232 8.9778 17.6398C9.40378 17.9564 9.8787 18.1867 10.4025 18.3306C10.7095 18.4116 11.0175 18.4688 11.3265 18.5023V20.213H12.6735V18.5033C13.2119 18.4473 13.7012 18.3236 14.1414 18.132C14.7632 17.8557 15.2467 17.4585 15.5921 16.9404C15.9375 16.4165 16.1102 15.7833 16.1102 15.0407C16.1102 14.2924 15.9519 13.6764 15.6353 13.1928C15.3187 12.7093 14.8783 12.3006 14.3141 11.9667C13.75 11.6328 13.0937 11.322 12.3454 11.0341C11.8849 10.8442 11.5222 10.66 11.2574 10.4815C10.9926 10.2973 10.8055 10.0958 10.6961 9.87706C10.5925 9.65831 10.5407 9.40214 10.5407 9.10855C10.5407 8.80921 10.5896 8.54441 10.6875 8.31414C10.7911 8.07812 10.9552 7.89104 11.1797 7.75288C11.4042 7.61472 11.692 7.54564 12.0432 7.54564C12.2792 7.54564 12.4951 7.59169 12.6908 7.6838C12.8865 7.77015 13.0535 7.90255 13.1916 8.081C13.3355 8.25946 13.4449 8.48108 13.5197 8.74589C13.5946 9.01069 13.632 9.31579 13.632 9.66118H16.1102C16.1102 9.01645 16.0152 8.44367 15.8252 7.94284C15.6353 7.44202 15.3618 7.01891 15.0049 6.67352C14.648 6.32237 14.222 6.05757 13.727 5.87911C13.4487 5.77557 13.1522 5.70112 12.8376 5.65578Z" fill="currentColor"/>
</svg>
