<svg width="243" height="197" viewBox="0 0 243 197" fill="none" xmlns="http://www.w3.org/2000/svg">
<g opacity="0.6" clip-path="url(#clip0_232_7529)">
<path d="M193.827 3.24725H25.2773V167.876H193.827V3.24725Z" fill="#231F20"/>
<path d="M189.494 8.51138H29.6099V167.876H189.494V8.51138Z" fill="white"/>
<path d="M193.827 165.555V167.876H108.885L127.238 149.576L152.515 124.346L193.827 165.555Z" fill="#231F20"/>
<path d="M25.2773 167.876V152.052L77.4949 99.9562L145.583 167.876H25.2773Z" fill="#231F20"/>
<path d="M137.347 81.8277C151.601 81.8277 163.155 70.3015 163.155 56.0832C163.155 41.865 151.601 30.3388 137.347 30.3388C123.094 30.3388 111.539 41.865 111.539 56.0832C111.539 70.3015 123.094 81.8277 137.347 81.8277Z" fill="#231F20"/>
<path d="M224.286 11.7775L224.21 12.5525L229.789 13.0962L229.865 12.3212L224.286 11.7775Z" fill="#5D5E61"/>
<path d="M205.302 9.93408L205.226 10.7091L218.877 12.0395L218.953 11.2645L205.302 9.93408Z" fill="#5D5E61"/>
<path d="M75.2559 0.008289L59.2085 163.857L226.959 180.205L243.007 16.3568L75.2559 0.008289Z" fill="#5D5E61"/>
<path d="M79.0563 5.66089L63.522 164.27L222.649 179.778L238.183 21.1689L79.0563 5.66089Z" fill="white"/>
<path d="M227.184 177.882L226.957 180.187L142.421 171.956L162.468 155.518L190.087 132.865L227.184 177.882Z" fill="#5D5E61"/>
<path d="M59.2041 163.85L60.7498 148.104L117.8 101.319L178.948 175.515L59.2041 163.85Z" fill="#5D5E61"/>
<path d="M205.284 73.7935C211.006 60.7714 205.063 45.5875 192.008 39.8794C178.954 34.1712 163.732 40.1003 158.01 53.1224C152.288 66.1445 158.232 81.3284 171.286 87.0366C184.34 92.7448 199.562 86.8156 205.284 73.7935Z" fill="#5D5E61"/>
<path d="M168.193 21.7558L0.00244141 32.7229L10.7676 197.001L178.958 186.034L168.193 21.7558Z" fill="#D2D1D4"/>
<path d="M164.213 27.2872L4.66895 37.6906L15.0899 196.716L174.634 186.312L164.213 27.2872Z" fill="white"/>
<path d="M178.792 183.723L178.948 186.043L94.1851 191.565L111.305 172.112L134.88 145.293L178.792 183.723Z" fill="#D2D1D4"/>
<path d="M10.7575 197L9.71924 181.215L58.4316 125.833L130.805 189.182L10.7575 197Z" fill="#D2D1D4"/>
<path d="M133.539 96.3669C143.618 86.3131 143.618 70.0126 133.539 59.9588C123.46 49.905 107.119 49.905 97.0407 59.9588C86.9619 70.0127 86.9619 86.3131 97.0407 96.3669C107.119 106.421 123.46 106.421 133.539 96.3669Z" fill="#D2D1D4"/>
</g>
<defs>
<clipPath id="clip0_232_7529">
<rect width="243" height="197" fill="white"/>
</clipPath>
</defs>
</svg>
