<svg width="24" height="24" viewBox="0 0 24 24" fill="none" xmlns="http://www.w3.org/2000/svg">
<circle cx="12" cy="12" r="12" fill="currentColor"/>
<path d="M12.9545 14.1543H10.6903C10.6963 13.6215 10.7377 13.1628 10.8146 12.778C10.8975 12.3873 11.0366 12.0351 11.232 11.7214C11.4332 11.4077 11.6996 11.0969 12.0311 10.7891C12.3093 10.5405 12.552 10.3037 12.7592 10.0788C12.9663 9.85386 13.1291 9.62301 13.2475 9.38624C13.3659 9.14354 13.4251 8.87421 13.4251 8.57825C13.4251 8.23492 13.3718 7.95079 13.2653 7.72586C13.1646 7.495 13.0107 7.32039 12.8036 7.202C12.6023 7.08361 12.3478 7.02442 12.04 7.02442C11.7854 7.02442 11.5487 7.08065 11.3296 7.19312C11.1106 7.29967 10.9301 7.46541 10.788 7.69035C10.6519 7.91528 10.5808 8.21125 10.5749 8.57825H8C8.01776 7.7673 8.20422 7.09841 8.55938 6.57158C8.92046 6.03885 9.40289 5.64521 10.0067 5.39068C10.6104 5.13023 11.2882 5 12.04 5C12.8687 5 13.579 5.13615 14.1709 5.40844C14.7629 5.67481 15.2157 6.06844 15.5294 6.58935C15.8431 7.10433 16 7.73179 16 8.4717C16 8.98668 15.8994 9.44543 15.6981 9.84794C15.4969 10.2445 15.2334 10.6145 14.9079 10.9578C14.5823 11.3011 14.2242 11.6563 13.8335 12.0233C13.4961 12.3252 13.2653 12.6419 13.141 12.9734C13.0226 13.3048 12.9604 13.6985 12.9545 14.1543ZM10.424 16.898C10.424 16.519 10.5542 16.2053 10.8146 15.9567C11.0751 15.7022 11.4243 15.5749 11.8624 15.5749C12.2945 15.5749 12.6408 15.7022 12.9012 15.9567C13.1676 16.2053 13.3008 16.519 13.3008 16.898C13.3008 17.2649 13.1676 17.5757 12.9012 17.8302C12.6408 18.0847 12.2945 18.212 11.8624 18.212C11.4243 18.212 11.0751 18.0847 10.8146 17.8302C10.5542 17.5757 10.424 17.2649 10.424 16.898Z" fill="white"/>
</svg>
