<svg width="28" height="27" viewBox="0 0 28 27" fill="none" xmlns="http://www.w3.org/2000/svg">
<g clip-path="url(#clip0_259_8617)">
<path d="M14.0311 0.393252C21.2941 0.389133 27.1941 6.27868 27.2023 13.5418C27.2105 20.8131 21.3054 26.7232 14.0342 26.7201C6.77229 26.716 0.876465 20.8182 0.876465 13.5572C0.876465 6.29309 6.76817 0.39737 14.0311 0.393252ZM21.6359 13.5531C21.5885 12.301 21.5886 11.0397 21.4825 9.78666C21.3199 7.86329 19.9939 6.43621 18.0945 6.16336C17.1412 6.02641 16.1653 6.00994 15.2006 6.00994C13.5566 6.00994 11.9084 6.00067 10.2705 6.12011C8.77154 6.22925 7.62573 7.00045 6.96686 8.39562C6.67758 9.00722 6.54683 9.66516 6.53654 10.3375C6.50977 12.1106 6.49433 13.8836 6.4933 15.6577C6.4933 16.2137 6.53242 16.7707 6.58801 17.3247C6.77744 19.2388 8.09208 20.6813 9.9822 20.949C10.9355 21.0839 11.9114 21.1024 12.8761 21.1024C14.5109 21.1024 16.1508 21.1106 17.7805 20.9974C19.824 20.8553 21.3137 19.3458 21.4846 17.3092C21.5885 16.0644 21.5896 14.8113 21.6369 13.5541L21.6359 13.5531Z" fill="currentColor"/>
<path d="M14.06 7.3351C15.2048 7.36805 16.3444 7.37319 17.481 7.44115C19.0612 7.53588 20.103 8.53566 20.1452 10.1213C20.206 12.4061 20.207 14.6939 20.1452 16.9787C20.102 18.5777 19.0612 19.5806 17.4655 19.6723C15.1729 19.8041 12.8761 19.804 10.5824 19.6702C9.0207 19.5796 7.97372 18.5695 7.93254 17.0024C7.8718 14.7094 7.87077 12.4123 7.93254 10.1192C7.97475 8.53566 9.01864 7.53588 10.5989 7.44115C11.7519 7.37217 12.9101 7.36805 14.06 7.3351ZM17.9164 13.5582C17.9185 11.4166 16.1993 9.69092 14.0538 9.67856C11.9063 9.66724 10.1634 11.4022 10.1614 13.5531C10.1593 15.6927 11.8796 17.4204 14.024 17.4328C16.1704 17.4451 17.9144 15.7092 17.9164 13.5572V13.5582ZM18.0853 8.61906C17.586 8.61391 17.1814 9.00209 17.1721 9.49632C17.1618 10.0091 17.554 10.4178 18.0616 10.423C18.5712 10.4281 18.9768 10.0266 18.9768 9.52C18.9768 9.02371 18.5804 8.62318 18.0853 8.61803V8.61906Z" fill="currentColor"/>
<path d="M16.5585 13.5655C16.5544 14.9503 15.423 16.0767 14.0362 16.0757C12.6413 16.0747 11.5109 14.9328 11.5202 13.5346C11.5295 12.1528 12.6681 11.0305 14.0548 11.0377C15.4394 11.0449 16.5616 12.1785 16.5574 13.5665L16.5585 13.5655Z" fill="currentColor"/>
</g>
<defs>
<clipPath id="clip0_259_8617">
<rect width="26.3258" height="26.3258" fill="white" transform="translate(0.876465 0.393265)"/>
</clipPath>
</defs>
</svg>
