<svg width="24" height="24" viewBox="0 0 24 24" fill="none" xmlns="http://www.w3.org/2000/svg">
<path d="M12 12C14.21 12 16 10.21 16 8C16 5.79 14.21 4 12 4C9.79 4 8 5.79 8 8C8 10.21 9.79 12 12 12ZM12 14C9.33 14 4 15.34 4 18V20H20V18C20 15.34 14.67 14 12 14Z" fill="#919191"/>
<path d="M20 13L19.565 12.6403C18.02 11.3678 17 10.5286 17 9.49864C17 8.6594 17.726 8 18.65 8C19.172 8 19.673 8.22071 20 8.56948C20.327 8.22071 20.828 8 21.35 8C22.274 8 23 8.6594 23 9.49864C23 10.5286 21.98 11.3678 20.435 12.6431L20 13Z" fill="#919191"/>
</svg>
