<svg width="16" height="16" viewBox="0 0 16 16" fill="none" xmlns="http://www.w3.org/2000/svg">
<path d="M5.81244 5.8674C7.3856 4.52979 8.94802 3.20032 10.5174 1.86521C10.3766 1.57541 10.3096 1.27809 10.3582 0.957615C10.41 0.618987 10.561 0.336067 10.8079 0.103848C10.95 -0.0294751 11.1729 -0.0319788 11.3302 0.0856958C11.3801 0.123252 11.4243 0.168318 11.4691 0.212759C12.9078 1.63737 14.3464 3.06261 15.7844 4.48785C16.0787 4.77954 16.073 5.01364 15.7541 5.26901C15.2912 5.63956 14.7796 5.70091 14.2327 5.47995C14.1576 5.44928 14.1115 5.43426 14.0464 5.50875C12.7347 7.0285 11.4199 8.54513 10.1056 10.063C10.0993 10.0705 10.0955 10.0805 10.0829 10.1024C10.3033 10.3647 10.4681 10.662 10.5319 11.0069C10.6582 11.6917 10.4738 12.2851 9.98437 12.782C9.79428 12.9755 9.5423 12.9598 9.33136 12.7514C8.53942 11.9677 7.7481 11.1828 6.95615 10.3985C6.91573 10.3584 6.87342 10.3209 6.79764 10.2495C6.75785 10.3065 6.7288 10.3653 6.68522 10.4079C5.4152 11.6378 4.15907 12.8834 2.86505 14.0884C2.18425 14.7218 1.43715 15.2851 0.715929 15.8748C0.512574 16.0413 0.282694 16.0394 0.129231 15.8904C-0.0406527 15.7252 -0.0463366 15.4992 0.124179 15.2864C1.11127 14.0539 2.13626 12.854 3.25534 11.7355C4.04729 10.9443 4.84492 10.1581 5.64066 9.37073C5.68108 9.33067 5.72781 9.29562 5.78465 9.24679C5.73286 9.19234 5.69687 9.15103 5.65771 9.11222C4.82534 8.28724 3.99298 7.46227 3.16124 6.6373C2.88905 6.36752 2.89537 6.14093 3.18145 5.88305C3.88056 5.25149 4.9346 5.2058 5.68929 5.77414C5.72655 5.80231 5.76381 5.83172 5.81181 5.86865L5.81244 5.8674Z" fill="#919191"/>
</svg>
