<svg width="19" height="20" viewBox="0 0 19 20" fill="none" xmlns="http://www.w3.org/2000/svg">
<path d="M18 7.5V5.25V2C18 1.44772 17.5523 1 17 1H2C1.44772 1 1 1.44772 1 2V18C1 18.5523 1.44772 19 2 19H17C17.5523 19 18 18.5523 18 18V14.5" stroke="currentColor" stroke-width="2" stroke-linecap="round"/>
<path d="M9.5 10C10.7431 10 11.75 8.88125 11.75 7.5C11.75 6.11875 10.7431 5 9.5 5C8.25688 5 7.25 6.11875 7.25 7.5C7.25 8.88125 8.25688 10 9.5 10ZM9.5 11.25C7.99813 11.25 5 12.0875 5 13.75V15H14V13.75C14 12.0875 11.0019 11.25 9.5 11.25Z" fill="currentColor"/>
</svg>
