<svg width="24" height="24" viewBox="0 0 24 24" fill="none" xmlns="http://www.w3.org/2000/svg">
<path fill-rule="evenodd" clip-rule="evenodd" d="M6.45264 4.44907C7.41713 4.15702 8.44029 4 9.50012 4C15.2991 4 20.0001 8.70101 20.0001 14.5C20.0001 15.5598 19.8431 16.583 19.5511 17.5475C22.2238 15.8664 24.0001 12.8906 24.0001 9.5C24.0001 4.25329 19.7468 0 14.5001 0C11.1095 0 8.13372 1.77629 6.45264 4.44907Z" fill="#919191"/>
<path fill-rule="evenodd" clip-rule="evenodd" d="M9.5 24C14.7467 24 19 19.7467 19 14.5C19 9.25329 14.7467 5 9.5 5C4.25329 5 0 9.25329 0 14.5C0 19.7467 4.25329 24 9.5 24ZM10.1631 9.47749V8H9.09668V9.45666C8.64961 9.49923 8.24629 9.60612 7.88672 9.77734C7.41276 10.0007 7.04134 10.3197 6.77246 10.7344C6.50358 11.1491 6.36914 11.639 6.36914 12.2041C6.36914 12.7965 6.49447 13.2865 6.74512 13.6738C6.99577 14.0566 7.3444 14.3779 7.79102 14.6377C8.24219 14.8929 8.764 15.1344 9.35645 15.3623C9.70736 15.4945 9.98535 15.6312 10.1904 15.7725C10.4001 15.9137 10.5505 16.0755 10.6416 16.2578C10.7373 16.4401 10.7852 16.6611 10.7852 16.9209C10.7852 17.1533 10.735 17.363 10.6348 17.5498C10.5391 17.7321 10.3955 17.8757 10.2041 17.9805C10.0173 18.0853 9.778 18.1377 9.48633 18.1377C9.29948 18.1377 9.11491 18.1104 8.93262 18.0557C8.75033 18.001 8.58626 17.9098 8.44043 17.7822C8.29915 17.6501 8.18522 17.4746 8.09863 17.2559C8.01204 17.0326 7.96875 16.7546 7.96875 16.4219H6C6 17.0326 6.10026 17.5475 6.30078 17.9668C6.5013 18.3815 6.77018 18.7142 7.10742 18.9648C7.44466 19.2155 7.82064 19.3978 8.23535 19.5117C8.47838 19.5758 8.7222 19.6211 8.9668 19.6477V21.002H10.0332V19.6484C10.4594 19.6041 10.8468 19.5062 11.1953 19.3545C11.6875 19.1357 12.0703 18.8213 12.3438 18.4111C12.6172 17.9964 12.7539 17.4951 12.7539 16.9072C12.7539 16.3148 12.6286 15.8271 12.3779 15.4443C12.1273 15.0615 11.7786 14.738 11.332 14.4736C10.8854 14.2093 10.3659 13.9632 9.77344 13.7354C9.40885 13.585 9.12175 13.4391 8.91211 13.2979C8.70247 13.152 8.55436 12.9925 8.46777 12.8193C8.38574 12.6462 8.34473 12.4434 8.34473 12.2109C8.34473 11.974 8.38346 11.7643 8.46094 11.582C8.54297 11.3952 8.67285 11.2471 8.85059 11.1377C9.02832 11.0283 9.25618 10.9736 9.53418 10.9736C9.72103 10.9736 9.89193 11.0101 10.0469 11.083C10.2018 11.1514 10.334 11.2562 10.4434 11.3975C10.5573 11.5387 10.6439 11.7142 10.7031 11.9238C10.7624 12.1335 10.792 12.375 10.792 12.6484H12.7539C12.7539 12.138 12.6787 11.6846 12.5283 11.2881C12.3779 10.8916 12.1615 10.5566 11.8789 10.2832C11.5964 10.0052 11.2591 9.79557 10.8672 9.6543C10.6469 9.57232 10.4122 9.51339 10.1631 9.47749Z" fill="#919191"/>
</svg>
