<svg width="311" height="254" viewBox="0 0 311 254" fill="none" xmlns="http://www.w3.org/2000/svg">
<path d="M303.973 29.388C299.103 31.548 294.096 33.371 288.98 34.851C295.037 28.001 299.655 19.941 302.474 11.121C303.106 9.14398 302.451 6.97998 300.826 5.68699C299.203 4.39298 296.948 4.23799 295.161 5.29699C284.296 11.741 272.574 16.372 260.283 19.08C247.902 6.98199 231.086 0.0969849 213.702 0.0969849C177.007 0.0969849 147.153 29.95 147.153 66.644C147.153 69.534 147.336 72.408 147.698 75.242C102.163 71.244 59.8298 48.863 30.7598 13.204C29.7238 11.933 28.1278 11.248 26.4938 11.379C24.8588 11.507 23.3898 12.429 22.5638 13.846C16.6678 23.963 13.5508 35.534 13.5508 47.307C13.5508 63.342 19.2758 78.556 29.3888 90.444C26.3138 89.379 23.3298 88.048 20.4818 86.467C18.9528 85.616 17.0868 85.629 15.5678 86.5C14.0478 87.371 13.0948 88.973 13.0548 90.724C13.0478 91.019 13.0478 91.314 13.0478 91.613C13.0478 115.548 25.9298 137.097 45.6248 148.842C43.9328 148.673 42.2418 148.428 40.5618 148.107C38.8298 147.776 37.0488 148.383 35.8808 149.704C34.7108 151.024 34.3238 152.864 34.8628 154.544C42.1528 177.304 60.9218 194.045 83.6118 199.149C64.7928 210.936 43.2718 217.11 20.6798 217.11C15.9658 217.11 11.2248 216.833 6.58477 216.284C4.27977 216.01 2.07577 217.371 1.29077 219.563C0.505771 221.756 1.33777 224.201 3.29877 225.458C32.3218 244.067 65.8808 253.903 100.346 253.903C168.1 253.903 210.485 221.953 234.11 195.15C263.57 161.729 280.466 117.492 280.466 73.783C280.466 71.957 280.438 70.113 280.382 68.275C292.005 59.518 302.012 48.92 310.155 36.739C311.392 34.889 311.258 32.444 309.825 30.741C308.394 29.037 306.009 28.486 303.973 29.388Z" fill="currentColor"/>
</svg>
