<svg width="2280" height="1536" viewBox="0 0 2280 1536" fill="none" xmlns="http://www.w3.org/2000/svg">
<path d="M2240.98 1535.2H0.294922V0.7995H2279.71V1535.2H2240.98Z" fill="#1D5B99"/>
<path fill-rule="evenodd" clip-rule="evenodd" d="M2240.98 1496.47H39.0225V39.5272H2240.98V1496.47V1496.47Z" fill="white"/>
<path fill-rule="evenodd" clip-rule="evenodd" d="M834.86 1004.61L977.865 533.092H1105.46L962.444 1004.61H834.86V1004.61ZM777.82 533.221L663.037 733.111C633.829 785.47 616.735 811.916 608.525 844.976H606.774C608.81 803.057 602.961 751.554 602.416 722.45L589.732 533.221H374.953L372.761 545.906C427.934 545.906 460.657 573.622 469.658 630.326L511.524 1004.61H643.712L911.006 533.221H777.82ZM1770.08 1004.61L1766.57 934.493L1607.26 934.363L1574.66 1004.61H1436.14L1687.32 533.987H1857.34L1899.87 1004.61H1770.08V1004.61ZM1755.47 726.471C1754.03 691.621 1752.86 644.333 1755.21 615.696H1753.33C1745.57 639.107 1712.21 709.403 1697.54 743.967L1650.07 847.31H1761.94L1755.47 726.471ZM1239.41 1018.01C1149.34 1018.01 1089.55 989.433 1046.88 963.947L1107.65 871.136C1145.98 892.562 1176.06 917.295 1245.29 917.295C1267.53 917.295 1288.98 911.523 1301.18 890.422C1318.91 859.774 1297.08 843.251 1247.25 815.041L1222.63 799.037C1148.74 748.558 1116.77 700.596 1151.56 616.889C1173.83 563.35 1232.51 522.755 1329.38 522.755C1396.15 522.755 1458.78 551.651 1495.25 579.874L1425.39 661.817C1389.77 633.024 1360.27 618.459 1326.49 618.459C1299.57 618.459 1279.1 628.847 1272.03 642.855C1258.74 669.183 1276.34 687.134 1315.17 711.231L1344.43 729.856C1434.15 786.443 1455.5 845.767 1433.04 901.212C1394.34 996.709 1318.62 1018.01 1239.41 1018.01V1018.01ZM1937.86 596.994H1932.34V563.35H1945.1C1953.23 563.35 1957.35 566.19 1957.35 573.026C1957.35 579.121 1953.63 581.65 1948.59 582.208L1958.02 596.994H1951.76L1943.07 582.623H1937.86V596.994V596.994ZM1944.03 577.889C1948.19 577.889 1951.84 577.487 1951.84 572.611C1951.84 568.551 1947.86 568.058 1944.55 568.058H1937.86V577.889H1944.03ZM1943.88 610.002C1926.4 610.002 1913.96 596.916 1913.96 579.601C1913.96 561.327 1927.76 549.213 1943.88 549.213C1959.79 549.213 1973.62 561.327 1973.62 579.601C1973.62 597.889 1959.79 610.002 1943.88 610.002ZM1943.88 554.492C1930.7 554.492 1920.47 564.816 1920.47 579.601C1920.47 593.414 1929.4 604.711 1943.88 604.711C1956.87 604.711 1967.11 594.465 1967.11 579.601C1967.11 564.816 1956.87 554.492 1943.88 554.492Z" fill="#1D5B99"/>
<path fill-rule="evenodd" clip-rule="evenodd" d="M2186.76 1151.05H97.1143V1430.64H2186.76V1151.05V1151.05Z" fill="#E7A83A"/>
<path fill-rule="evenodd" clip-rule="evenodd" d="M2182.89 109.24H93.249V388.842H2182.89V109.24ZM2135.13 1410.76H2129.61V1377.11H2142.37C2150.5 1377.11 2154.62 1379.95 2154.62 1386.79C2154.62 1392.87 2150.9 1395.4 2145.86 1395.96L2155.29 1410.76H2149.03L2140.34 1396.37H2135.13V1410.76V1410.76ZM2141.32 1391.65C2145.47 1391.65 2149.13 1391.25 2149.13 1386.36C2149.13 1382.31 2145.14 1381.82 2141.84 1381.82H2135.14V1391.65H2141.32V1391.65ZM2141.16 1423.75C2123.68 1423.75 2111.24 1410.68 2111.24 1393.35C2111.24 1375.09 2125.07 1362.98 2141.16 1362.98C2157.1 1362.98 2170.9 1375.09 2170.9 1393.35C2170.9 1411.64 2157.1 1423.75 2141.16 1423.75ZM2141.16 1368.24C2127.98 1368.24 2117.75 1378.58 2117.75 1393.35C2117.75 1407.18 2126.69 1418.46 2141.16 1418.46C2154.16 1418.46 2164.39 1408.23 2164.39 1393.35C2164.39 1378.58 2154.16 1368.24 2141.16 1368.24Z" fill="#1D5B99"/>
</svg>
